HEARTLESS 2009 DvDRip XviD Audio English

Format : AVI
Format/Info : Audio Video Interleave
File size : 702 MiB
Duration : 1h 49mn
Overall bit rate : 901 Kbps
Writing application : MEncoder SVN-r29352(20090610-gcc4.3.3)
Writing library : MPlayer

Video
ID : 0
Format : MPEG-4 Visual
Format profile : AdvancedSimple@L5
Format settings, BVOP : Yes
Format settings, QPel : No
Format settings, GMC : No warppoints
Format settings, Matrix : Default (H.263)
Codec ID : XVID
Codec ID/Hint : XviD
Duration : 1h 49mn
Bit rate : 760 Kbps
Width : 640 pixels
Height : 360 pixels
Display aspect ratio : 2.35:1
Frame rate : 25.000 fps
Resolution : 24 bits
Colorimetry : 4:2:0
Scan type : Progressive
Bits/(Pixel*Frame) : 0.132
Stream size : 593 MiB (84%)
Writing library : XviD 1.2.1 (UTC 2008-12-04)

Audio
ID : 1
Format : MPEG Audio
Format version : Version 1
Format profile : Layer 3
Codec ID : 55
Codec ID/Hint : MP3
Duration : 1h 49mn
Bit rate mode : Constant
Bit rate : 128 Kbps
Channel(s) : 2 channels
Sampling rate : 44.1 KHz
Resolution : 16 bits
Video delay : 40ms
Stream size : 99.8 MiB (14%)
Alignment : Aligned on interleaves
Interleave, duration : 26 ms (0.65 video frame)
Interleave, preload duration : 522 ms
Writing library : LAME3.98

Jamie Morgan, a young man with a large heart-shaped birthmark on his face, discovers that there are demons on the streets of East London.
 
http://www.imdb.com/title/tt1220214/

PLEASE SEED AND ENJOY THANKS

screen shots
 
http://img708.imageshack.us/img708/3783/heartlessxvidviceavithu.jpg